<?xml version="1.0" encoding="UTF-8" standalone="no"?>
<!-- Created with Inkscape (http://www.inkscape.org/) -->

<svg
   width="160"
   height="190"
   viewBox="0 0 42.333333 50.270835"
   version="1.1"
   id="svg5"
   inkscape:version="1.1.2 (b8e25be833, 2022-02-05)"
   sodipodi:docname="slack-clone-icon.svg"
   xmlns:inkscape="http://www.inkscape.org/namespaces/inkscape"
   xmlns:sodipodi="http://sodipodi.sourceforge.net/DTD/sodipodi-0.dtd"
   xmlns="http://www.w3.org/2000/svg"
   xmlns:svg="http://www.w3.org/2000/svg">
  <sodipodi:namedview
     id="namedview7"
     pagecolor="#ffffff"
     bordercolor="#666666"
     borderopacity="1.0"
     inkscape:pageshadow="2"
     inkscape:pageopacity="0.0"
     inkscape:pagecheckerboard="0"
     inkscape:document-units="mm"
     showgrid="true"
     units="px"
     width="159pc"
     inkscape:zoom="1.8645874"
     inkscape:cx="160.62535"
     inkscape:cy="156.33485"
     inkscape:window-width="1920"
     inkscape:window-height="991"
     inkscape:window-x="-9"
     inkscape:window-y="-9"
     inkscape:window-maximized="1"
     inkscape:current-layer="layer1"
     inkscape:snap-others="false"
     inkscape:object-nodes="false"
     inkscape:snap-nodes="false"
     inkscape:snap-global="false">
    <inkscape:grid
       type="xygrid"
       id="grid824" />
  </sodipodi:namedview>
  <defs
     id="defs2" />
  <g
     inkscape:label="Ebene 1"
     inkscape:groupmode="layer"
     id="layer1">
    <ellipse
       style="fill:#ff4747;fill-opacity:1;stroke:none;stroke-width:0.0701832;stroke-linecap:round;stroke-linejoin:round;stroke-miterlimit:4;stroke-dasharray:none;stroke-opacity:1"
       id="path4922"
       cx="14.512627"
       cy="13.777753"
       rx="14.387578"
       ry="13.685745" />
    <path
       style="fill:#ff4747;fill-opacity:1;stroke:none;stroke-width:0.0532313;stroke-linecap:round;stroke-linejoin:round;stroke-miterlimit:4;stroke-dasharray:none;stroke-opacity:1"
       d="M 10.111838,31.27848 C 9.6835938,28.717572 8.3102331,26.606694 5.7374741,24.55501 c -0.355859,-0.283783 -0.641177,-0.522092 -0.634042,-0.529575 0.0071,-0.0075 0.268858,0.0936 0.581603,0.224627 1.084813,0.454496 2.358914,0.8113 3.627168,1.015765 0.8270329,0.13333 3.0059749,0.164363 3.9391059,0.0561 0.90852,-0.105406 1.784805,-0.283698 2.641586,-0.537464 0.354891,-0.105112 0.655072,-0.181299 0.66707,-0.169302 0.01199,0.01199 0.212908,0.741781 0.0094,0.862667 -1.449451,0.861102 -3.000955,2.109285 -4.265668,1.819494 -2.8870529,-0.661531 -1.746415,2.613129 -2.035537,3.728345 -0.119537,0.461082 -0.121099,0.463608 -0.156349,0.252811 z"
       id="path5665"
       sodipodi:nodetypes="ssssssssssss" />
    <ellipse
       style="fill:#141d2f;fill-opacity:1;stroke:none;stroke-width:0.0701832;stroke-linecap:round;stroke-linejoin:round;stroke-miterlimit:4;stroke-dasharray:none;stroke-opacity:1"
       id="path4922-2"
       cx="-27.818794"
       cy="32.727245"
       rx="14.387578"
       ry="13.685745"
       transform="scale(-1,1)" />
    <path
       style="fill:#141d2f;fill-opacity:1;stroke:none;stroke-width:0.0532313;stroke-linecap:round;stroke-linejoin:round;stroke-miterlimit:4;stroke-dasharray:none;stroke-opacity:1"
       d="m 32.219589,50.227971 c 0.42824,-2.56091 1.80161,-4.671784 4.37439,-6.723468 0.35586,-0.283783 0.64118,-0.522092 0.63404,-0.529575 -0.007,-0.0075 -0.26886,0.0936 -0.5816,0.224627 -1.08482,0.454496 -2.35893,0.8113 -3.62719,1.015765 -0.82704,0.13333 -3.005985,0.164363 -3.939116,0.0561 -0.908519,-0.105406 -1.784805,-0.283698 -2.641586,-0.537464 -0.354891,-0.105112 -0.655072,-0.1813 -0.66707,-0.169302 -0.01199,0.01199 -0.212908,0.74178 -0.0094,0.862667 1.449451,0.861102 3.000955,2.10929 4.265666,1.8195 2.887066,-0.661537 1.746416,2.61313 2.035536,3.72834 0.11954,0.46108 0.1211,0.46361 0.15635,0.25281 z"
       id="path5665-2"
       sodipodi:nodetypes="ssssssssssss" />
    <text
       xml:space="preserve"
       style="font-size:9.87778px;line-height:1.25;font-family:'Britannic Bold';-inkscape-font-specification:'Britannic Bold, Normal';font-variant-ligatures:none;letter-spacing:1.05833px;direction:rtl;fill:#ffffff;fill-opacity:1;stroke:#ffffff;stroke-width:0.815782;stroke-opacity:1"
       x="26.740578"
       y="15.808948"
       id="text7596"><tspan
         sodipodi:role="line"
         id="tspan7594"
         style="font-style:normal;font-variant:normal;font-weight:normal;font-stretch:normal;font-size:9.87778px;font-family:Perpetua;-inkscape-font-specification:Perpetua;fill:#ffffff;fill-opacity:1;stroke:#ffffff;stroke-width:0.815782;stroke-opacity:1"
         x="27.798908"
         y="15.808948">Hello</tspan></text>
    <text
       xml:space="preserve"
       style="font-size:9.87778px;line-height:1.25;font-family:'Britannic Bold';-inkscape-font-specification:'Britannic Bold, Normal';font-variant-ligatures:none;letter-spacing:1.05833px;direction:rtl;fill:#ffffff;fill-opacity:1;stroke:#ffffff;stroke-width:0.815782;stroke-opacity:1"
       x="40.334023"
       y="35.266773"
       id="text7596-1"><tspan
         sodipodi:role="line"
         id="tspan7594-2"
         style="font-style:normal;font-variant:normal;font-weight:normal;font-stretch:normal;font-size:9.87778px;font-family:Perpetua;-inkscape-font-specification:Perpetua;fill:#ffffff;fill-opacity:1;stroke:#ffffff;stroke-width:0.815782;stroke-opacity:1"
         x="41.392353"
         y="35.266773">Try it</tspan></text>
  </g>
</svg>
